:SAMPLES-PER-SECOND 30
:FULLY-SPECIFIED
:DEGREES
551
root  14.2978 39.4439 3.00673 -19.7839 -86.6621 19.4685
RightUpLeg  1.02105 -12.2425 -17.8911
RightLeg  -3.16842 -16.7184 -0.722788
RightFoot  14.9893 -3.89617 16.9963
RightToes  -5.28226e-011 1.30204e-014 -6.03759e-014
Spine  10.8372 0.319834 1.72988
Spine1  -5.12866 1.36473 -6.72268
HEad  -4.95442 -20.1996 -1.79038
LeftShoulder1  2.37811 -5.92604 -18.6778
LeftArm  -21.2363 24.4119 -57.2474
LeftForeArm  -28.6579 -0.154925 -10.3844
LeftHand  0.239918 6.42269 26.6799
RightShoulder  1.18486 1.87855 15.2821
RightArm  -11.2144 -10.143 44.4142
RightForeArm  -12.3591 36.6026 9.02867
RightHand  -1.05914 -0.402779 -24.4528
LeftUpLeg  3.46712 12.4137 14.3757
LeftLeg  2.96902 11.8021 2.39191
LeftFoot  1.40919 2.49974 -22.2028
LeftToes  -2.75829e-010 5.07641e-011 -5.51782e-011
552
root  14.331 39.4392 2.80172 -17.7325 -86.4962 17.2539
RightUpLeg  1.11503 -12.15 -17.5762
RightLeg  -2.81376 -16.9208 -0.785854
RightFoot  13.993 -3.77074 17.0996
RightToes  -5.28226e-011 1.30204e-014 -6.03759e-014
Spine  10.5058 0.136743 1.83523
Spine1  -4.43776 1.07954 -5.55265
HEad  -5.94467 -19.8823 -1.60192
LeftShoulder1  2.4427 -6.14403 -18.787
LeftArm  -20.0516 25.8581 -57.6282
LeftForeArm  -26.875 -1.05489 -11.2079
LeftHand  0.185025 6.23494 25.372
RightShoulder  1.17903 1.9286 14.9392
RightArm  -13.5323 -9.20155 44.3581
RightForeArm  -10.7748 40.9892 10.3767
RightHand  -1.12715 0.0275538 -23.9813
LeftUpLeg  3.90022 12.5125 14.8098
LeftLeg  2.0867 11.5251 2.2581
LeftFoot  2.02702 2.63641 -22.3491
LeftToes  -2.75829e-010 5.07641e-011 -5.51782e-011
553
root  14.3803 39.4585 2.65328 -12.9751 -86.3007 12.1768
RightUpLeg  1.45955 -12.0523 -17.2153
RightLeg  -2.74185 -17.0341 -0.694525
RightFoot  13.9108 -3.72213 16.9415
RightToes  -5.28226e-011 1.30204e-014 -6.03759e-014
Spine  10.3073 -0.193321 2.59731
Spine1  -3.82514 0.794395 -5.23982
HEad  -6.50761 -19.6819 -1.33303
LeftShoulder1  2.45805 -6.15832 -18.9179
LeftArm  -18.8454 26.6195 -56.9968
LeftForeArm  -25.1206 -2.24266 -11.83
LeftHand  0.0684865 5.73472 24.0109
RightShoulder  1.17365 1.94653 14.7519
RightArm  -14.5866 -8.59487 45.0736
RightForeArm  -8.1011 43.7792 11.248
RightHand  -1.15776 0.0815228 -24.3873
LeftUpLeg  4.45406 12.6285 15.345
LeftLeg  1.17942 11.2364 2.15761
LeftFoot  2.68221 2.77954 -22.4754
LeftToes  -2.75829e-010 5.07641e-011 -5.51782e-011
554
root  14.4456 39.4626 2.5332 -7.49109 -86.1361 6.49084
RightUpLeg  1.60302 -11.7408 -16.6514
RightLeg  -2.6106 -17.3099 -0.787984
RightFoot  13.8028 -3.70823 16.9515
RightToes  -5.28226e-011 1.30204e-014 -6.03759e-014
Spine  10.2269 -0.376583 3.30919
Spine1  -3.84282 0.623007 -5.01121
HEad  -6.0312 -19.8258 -1.42664
LeftShoulder1  2.41206 -6.10119 -18.5643
LeftArm  -17.6255 26.7884 -56.3972
LeftForeArm  -23.6205 -2.9236 -12.3637
LeftHand  -0.0208157 5.31199 22.0736
RightShoulder  1.20414 2.06974 14.8283
RightArm  -14.457 -8.71043 45.6811
RightForeArm  -5.60512 45.088 11.6129
RightHand  -1.12679 -0.182526 -24.9167
LeftUpLeg  4.67551 12.7954 15.896
LeftLeg  0.690835 10.8988 2.12033
LeftFoot  3.04516 2.85965 -22.5458
LeftToes  -2.75829e-010 5.07641e-011 -5.51782e-011
555
root  14.5193 39.4502 2.43785 -4.70764 -85.9963 3.6001
RightUpLeg  1.564 -11.5001 -16.2525
RightLeg  -2.34712 -17.6592 -0.95863
RightFoot  13.2019 -3.67431 17.2018
RightToes  -5.28226e-011 1.30204e-014 -6.03759e-014
Spine  10.189 -0.35798 3.32142
Spine1  -4.19405 0.498652 -4.13716
HEad  -4.90461 -20.1678 -1.97209
LeftShoulder1  2.33877 -6.10939 -17.7176
LeftArm  -16.644 26.6576 -56.4042
LeftForeArm  -21.9816 -3.38244 -12.8172
LeftHand  -0.0877726 4.909 19.2973
RightShoulder  1.26301 2.29724 15.0106
RightArm  -13.6335 -9.38393 45.9851
RightForeArm  -3.87147 45.4889 11.6647
RightHand  -0.992848 -0.670461 -24.1932
LeftUpLeg  4.59647 12.9492 16.2531
LeftLeg  0.66139 10.5756 2.10714
LeftFoot  3.19204 2.88499 -22.5194
LeftToes  -2.75829e-010 5.07641e-011 -5.51782e-011
556
root  14.5912 39.4462 2.38537 -4.28076 -85.9125 2.98047
RightUpLeg  1.67771 -11.5286 -16.2125
RightLeg  -2.23882 -17.7216 -0.938008
RightFoot  12.7509 -3.6673 17.4814
RightToes  -5.28226e-011 1.30204e-014 -6.03759e-014
Spine  10.1636 -0.2728 2.83354
Spine1  -4.33902 0.352111 -2.77854
HEad  -3.96481 -20.4371 -2.51128
LeftShoulder1  2.2793 -6.1622 -16.9053
LeftArm  -15.5884 26.2764 -56.5882
LeftForeArm  -20.5928 -4.30985 -13.1558
LeftHand  -0.162508 4.31616 16.6322
RightShoulder  1.31659 2.46617 15.319
RightArm  -12.4586 -10.0556 46.0781
RightForeArm  -3.02377 45.2976 11.5312
RightHand  -0.786945 -1.29028 -22.0757
LeftUpLeg  4.57678 13.071 16.4422
LeftLeg  0.781683 10.3042 2.08617
LeftFoot  3.31788 2.90682 -22.4981
LeftToes  -2.75829e-010 5.07641e-011 -5.51782e-011
